<svg xmlns="http://www.w3.org/2000/svg" viewBox="0 0 800 800" width="800" height="800"><defs>
<linearGradient id="steel" x1="0" y1="0" x2="1" y2="1">
<stop offset="0" stop-color="#D4DAE3"/><stop offset=".5" stop-color="#A8B2C0"/><stop offset="1" stop-color="#7A8494"/></linearGradient>
<linearGradient id="steelv" x1="0" y1="0" x2="1" y2="0">
<stop offset="0" stop-color="#7A8494"/><stop offset=".35" stop-color="#D4DAE3"/><stop offset="1" stop-color="#A8B2C0"/></linearGradient>
<linearGradient id="dark" x1="0" y1="0" x2="1" y2="0">
<stop offset="0" stop-color="#2A313C"/><stop offset=".35" stop-color="#5A6472"/><stop offset="1" stop-color="#39414E"/></linearGradient>
<linearGradient id="blue" x1="0" y1="0" x2="1" y2="0">
<stop offset="0" stop-color="#123184"/><stop offset=".35" stop-color="#3763DD"/><stop offset="1" stop-color="#1C46C7"/></linearGradient>
<linearGradient id="orange" x1="0" y1="0" x2="1" y2="0">
<stop offset="0" stop-color="#B85A1E"/><stop offset=".35" stop-color="#F09454"/><stop offset="1" stop-color="#E07B39"/></linearGradient>
<linearGradient id="paper" x1="0" y1="0" x2="1" y2="0">
<stop offset="0" stop-color="#D9C79C"/><stop offset=".4" stop-color="#F5EBD3"/><stop offset="1" stop-color="#E3D3AC"/></linearGradient>
<radialGradient id="shadow"><stop offset="0" stop-color="#0B1220" stop-opacity=".22"/><stop offset="1" stop-color="#0B1220" stop-opacity="0"/></radialGradient>
</defs><rect width="800" height="800" fill="#FFFFFF"/><ellipse cx="400" cy="690" rx="250" ry="34" fill="url(#shadow)"/><rect x="352" y="212" width="96" height="104" fill="#22272F"/><rect x="330" y="160" width="140" height="64" rx="16" fill="url(#orange)"/><path d="M282 296 h236 a42 42 0 0 1 42 42 v260 a42 42 0 0 1 -42 42 h-236 a42 42 0 0 1 -42 -42 v-260 a42 42 0 0 1 42 -42 z" fill="#22272F"/><rect x="262" y="378" width="276" height="186" rx="10" fill="#FFFFFF" opacity=".93"/><rect x="286" y="402" width="228" height="40" rx="8" fill="url(#orange)" opacity=".9"/><rect x="286" y="460" width="158" height="20" rx="8" fill="#454E5C" opacity=".35"/><rect x="286" y="492" width="196" height="20" rx="8" fill="#454E5C" opacity=".22"/><rect x="286" y="524" width="120" height="20" rx="8" fill="#454E5C" opacity=".18"/></svg>