<svg xmlns="http://www.w3.org/2000/svg" viewBox="0 0 800 800" width="800" height="800"><defs>
<linearGradient id="steel" x1="0" y1="0" x2="1" y2="1">
<stop offset="0" stop-color="#D4DAE3"/><stop offset=".5" stop-color="#A8B2C0"/><stop offset="1" stop-color="#7A8494"/></linearGradient>
<linearGradient id="steelv" x1="0" y1="0" x2="1" y2="0">
<stop offset="0" stop-color="#7A8494"/><stop offset=".35" stop-color="#D4DAE3"/><stop offset="1" stop-color="#A8B2C0"/></linearGradient>
<linearGradient id="dark" x1="0" y1="0" x2="1" y2="0">
<stop offset="0" stop-color="#2A313C"/><stop offset=".35" stop-color="#5A6472"/><stop offset="1" stop-color="#39414E"/></linearGradient>
<linearGradient id="blue" x1="0" y1="0" x2="1" y2="0">
<stop offset="0" stop-color="#123184"/><stop offset=".35" stop-color="#3763DD"/><stop offset="1" stop-color="#1C46C7"/></linearGradient>
<linearGradient id="orange" x1="0" y1="0" x2="1" y2="0">
<stop offset="0" stop-color="#B85A1E"/><stop offset=".35" stop-color="#F09454"/><stop offset="1" stop-color="#E07B39"/></linearGradient>
<linearGradient id="paper" x1="0" y1="0" x2="1" y2="0">
<stop offset="0" stop-color="#D9C79C"/><stop offset=".4" stop-color="#F5EBD3"/><stop offset="1" stop-color="#E3D3AC"/></linearGradient>
<radialGradient id="shadow"><stop offset="0" stop-color="#0B1220" stop-opacity=".22"/><stop offset="1" stop-color="#0B1220" stop-opacity="0"/></radialGradient>
</defs><rect width="800" height="800" fill="#FFFFFF"/><ellipse cx="400" cy="690" rx="250" ry="34" fill="url(#shadow)"/><path d="M140 366 H240 a9.520000000000001 34 0 0 1 0 68 H140 a9.520000000000001 34 0 0 1 0 -68 z" fill="url(#dark)"/><ellipse cx="140" cy="400" rx="9.520000000000001" ry="34" fill="#20262F"/><path d="M240 344 L320 300 H480 L560 344 v112 L480 500 H320 L240 456 z" fill="url(#steelv)"/><rect x="330" y="316" width="12" height="168" rx="5" fill="#7A8494" opacity=".35"/><rect x="356" y="316" width="12" height="168" rx="5" fill="#7A8494" opacity=".35"/><rect x="382" y="316" width="12" height="168" rx="5" fill="#7A8494" opacity=".35"/><rect x="408" y="316" width="12" height="168" rx="5" fill="#7A8494" opacity=".35"/><rect x="434" y="316" width="12" height="168" rx="5" fill="#7A8494" opacity=".35"/><rect x="460" y="316" width="12" height="168" rx="5" fill="#7A8494" opacity=".35"/><path d="M560 366 H665 a9.520000000000001 34 0 0 1 0 68 H560 a9.520000000000001 34 0 0 1 0 -68 z" fill="url(#dark)"/><ellipse cx="560" cy="400" rx="9.520000000000001" ry="34" fill="#20262F"/><rect x="300" y="292" width="200" height="18" rx="9" fill="#A8B2C0"/></svg>