<svg xmlns="http://www.w3.org/2000/svg" viewBox="0 0 800 800" width="800" height="800"><defs>
<linearGradient id="steel" x1="0" y1="0" x2="1" y2="1">
<stop offset="0" stop-color="#D4DAE3"/><stop offset=".5" stop-color="#A8B2C0"/><stop offset="1" stop-color="#7A8494"/></linearGradient>
<linearGradient id="steelv" x1="0" y1="0" x2="1" y2="0">
<stop offset="0" stop-color="#7A8494"/><stop offset=".35" stop-color="#D4DAE3"/><stop offset="1" stop-color="#A8B2C0"/></linearGradient>
<linearGradient id="dark" x1="0" y1="0" x2="1" y2="0">
<stop offset="0" stop-color="#2A313C"/><stop offset=".35" stop-color="#5A6472"/><stop offset="1" stop-color="#39414E"/></linearGradient>
<linearGradient id="blue" x1="0" y1="0" x2="1" y2="0">
<stop offset="0" stop-color="#123184"/><stop offset=".35" stop-color="#3763DD"/><stop offset="1" stop-color="#1C46C7"/></linearGradient>
<linearGradient id="orange" x1="0" y1="0" x2="1" y2="0">
<stop offset="0" stop-color="#B85A1E"/><stop offset=".35" stop-color="#F09454"/><stop offset="1" stop-color="#E07B39"/></linearGradient>
<linearGradient id="paper" x1="0" y1="0" x2="1" y2="0">
<stop offset="0" stop-color="#D9C79C"/><stop offset=".4" stop-color="#F5EBD3"/><stop offset="1" stop-color="#E3D3AC"/></linearGradient>
<radialGradient id="shadow"><stop offset="0" stop-color="#0B1220" stop-opacity=".22"/><stop offset="1" stop-color="#0B1220" stop-opacity="0"/></radialGradient>
</defs><rect width="800" height="800" fill="#FFFFFF"/><ellipse cx="400" cy="690" rx="250" ry="34" fill="url(#shadow)"/><path d="M170 470 L400 300 L640 460 L610 520 L400 380 L200 528 z" fill="url(#steel)"/><circle cx="400" cy="290" r="62" fill="#7A8494"/><circle cx="400" cy="290" r="36" fill="#2E3440"/><circle cx="168" cy="500" r="58" fill="#A8B2C0"/><circle cx="168" cy="500" r="32" fill="#2E3440"/><circle cx="632" cy="490" r="58" fill="#A8B2C0"/><circle cx="632" cy="490" r="32" fill="#2E3440"/></svg>