<svg xmlns="http://www.w3.org/2000/svg" viewBox="0 0 800 800" width="800" height="800"><defs>
<linearGradient id="steel" x1="0" y1="0" x2="1" y2="1">
<stop offset="0" stop-color="#D4DAE3"/><stop offset=".5" stop-color="#A8B2C0"/><stop offset="1" stop-color="#7A8494"/></linearGradient>
<linearGradient id="steelv" x1="0" y1="0" x2="1" y2="0">
<stop offset="0" stop-color="#7A8494"/><stop offset=".35" stop-color="#D4DAE3"/><stop offset="1" stop-color="#A8B2C0"/></linearGradient>
<linearGradient id="dark" x1="0" y1="0" x2="1" y2="0">
<stop offset="0" stop-color="#2A313C"/><stop offset=".35" stop-color="#5A6472"/><stop offset="1" stop-color="#39414E"/></linearGradient>
<linearGradient id="blue" x1="0" y1="0" x2="1" y2="0">
<stop offset="0" stop-color="#123184"/><stop offset=".35" stop-color="#3763DD"/><stop offset="1" stop-color="#1C46C7"/></linearGradient>
<linearGradient id="orange" x1="0" y1="0" x2="1" y2="0">
<stop offset="0" stop-color="#B85A1E"/><stop offset=".35" stop-color="#F09454"/><stop offset="1" stop-color="#E07B39"/></linearGradient>
<linearGradient id="paper" x1="0" y1="0" x2="1" y2="0">
<stop offset="0" stop-color="#D9C79C"/><stop offset=".4" stop-color="#F5EBD3"/><stop offset="1" stop-color="#E3D3AC"/></linearGradient>
<radialGradient id="shadow"><stop offset="0" stop-color="#0B1220" stop-opacity=".22"/><stop offset="1" stop-color="#0B1220" stop-opacity="0"/></radialGradient>
</defs><rect width="800" height="800" fill="#FFFFFF"/><ellipse cx="400" cy="690" rx="250" ry="34" fill="url(#shadow)"/><circle cx="400" cy="400" r="270" fill="#2E3440"/><path d="M400 400 L668 400" stroke="#1B2027" stroke-width="16"/><path d="M400 400 L663 452" stroke="#1B2027" stroke-width="16"/><path d="M400 400 L648 503" stroke="#1B2027" stroke-width="16"/><path d="M400 400 L623 549" stroke="#1B2027" stroke-width="16"/><path d="M400 400 L590 590" stroke="#1B2027" stroke-width="16"/><path d="M400 400 L549 623" stroke="#1B2027" stroke-width="16"/><path d="M400 400 L503 648" stroke="#1B2027" stroke-width="16"/><path d="M400 400 L452 663" stroke="#1B2027" stroke-width="16"/><path d="M400 400 L400 668" stroke="#1B2027" stroke-width="16"/><path d="M400 400 L348 663" stroke="#1B2027" stroke-width="16"/><path d="M400 400 L297 648" stroke="#1B2027" stroke-width="16"/><path d="M400 400 L251 623" stroke="#1B2027" stroke-width="16"/><path d="M400 400 L210 590" stroke="#1B2027" stroke-width="16"/><path d="M400 400 L177 549" stroke="#1B2027" stroke-width="16"/><path d="M400 400 L152 503" stroke="#1B2027" stroke-width="16"/><path d="M400 400 L137 452" stroke="#1B2027" stroke-width="16"/><path d="M400 400 L132 400" stroke="#1B2027" stroke-width="16"/><path d="M400 400 L137 348" stroke="#1B2027" stroke-width="16"/><path d="M400 400 L152 297" stroke="#1B2027" stroke-width="16"/><path d="M400 400 L177 251" stroke="#1B2027" stroke-width="16"/><path d="M400 400 L210 210" stroke="#1B2027" stroke-width="16"/><path d="M400 400 L251 177" stroke="#1B2027" stroke-width="16"/><path d="M400 400 L297 152" stroke="#1B2027" stroke-width="16"/><path d="M400 400 L348 137" stroke="#1B2027" stroke-width="16"/><path d="M400 400 L400 132" stroke="#1B2027" stroke-width="16"/><path d="M400 400 L452 137" stroke="#1B2027" stroke-width="16"/><path d="M400 400 L503 152" stroke="#1B2027" stroke-width="16"/><path d="M400 400 L549 177" stroke="#1B2027" stroke-width="16"/><path d="M400 400 L590 210" stroke="#1B2027" stroke-width="16"/><path d="M400 400 L623 251" stroke="#1B2027" stroke-width="16"/><path d="M400 400 L648 297" stroke="#1B2027" stroke-width="16"/><path d="M400 400 L663 348" stroke="#1B2027" stroke-width="16"/><circle cx="400" cy="400" r="216" fill="#20262F"/><circle cx="400" cy="400" r="216" fill="none" stroke="#151A20" stroke-width="8"/><circle cx="400" cy="400" r="150" fill="url(#steel)"/><circle cx="400.0" cy="308.0" r="16" fill="#5C6674"/><circle cx="487.5" cy="371.6" r="16" fill="#5C6674"/><circle cx="454.1" cy="474.4" r="16" fill="#5C6674"/><circle cx="345.9" cy="474.4" r="16" fill="#5C6674"/><circle cx="312.5" cy="371.6" r="16" fill="#5C6674"/><circle cx="400" cy="400" r="46" fill="#7A8494"/></svg>